<svg xmlns="http://www.w3.org/2000/svg" xmlns:xlink="http://www.w3.org/1999/xlink" width="500" zoomAndPan="magnify" viewBox="0 0 375 374.999991" height="500" preserveAspectRatio="xMidYMid meet" version="1.0"><defs><g/><clipPath id="cec4eeafcd"><path d="M 36 96 L 153 96 L 153 161 L 36 161 Z M 36 96 " clip-rule="nonzero"/></clipPath><clipPath id="d9461887fc"><path d="M 95.382812 58.371094 L 152.296875 104.882812 L 78.738281 194.898438 L 21.824219 148.386719 Z M 95.382812 58.371094 " clip-rule="nonzero"/></clipPath><clipPath id="cb222a1115"><path d="M 95.304688 58.308594 L 152.796875 105.289062 L 79.234375 195.304688 L 21.742188 148.324219 Z M 95.304688 58.308594 " clip-rule="nonzero"/></clipPath><clipPath id="54a0641c19"><path d="M 235 226 L 343 226 L 343 313 L 235 313 Z M 235 226 " clip-rule="nonzero"/></clipPath><clipPath id="1376db91eb"><path d="M 342.640625 226.894531 L 353.152344 299.640625 L 238.097656 316.265625 L 227.585938 243.523438 Z M 342.640625 226.894531 " clip-rule="nonzero"/></clipPath><clipPath id="59cc71c436"><path d="M 353.21875 300.089844 L 342.597656 226.605469 L 227.542969 243.230469 L 238.164062 316.71875 Z M 353.21875 300.089844 " clip-rule="nonzero"/></clipPath></defs><g fill="#061922" fill-opacity="1"><g transform="translate(53.355206, 180.686515)"><g><path d="M 3.976562 -30.117188 L 0.0390625 0 L 18.957031 0 L 19.769531 -6.332031 L 8.183594 -6.332031 L 8.957031 -12.199219 L 18.609375 -12.199219 L 19.460938 -18.53125 L 9.808594 -18.53125 L 10.5 -23.785156 L 22.085938 -23.785156 L 22.894531 -30.117188 Z M 3.976562 -30.117188 "/></g></g></g><g fill="#061922" fill-opacity="1"><g transform="translate(75.744152, 180.686515)"><g><path d="M 10.695312 -12.125 C 14.789062 -11.582031 15.519531 -10.386719 15.367188 -8.878906 L 15.328125 -8.496094 C 15.171875 -7.027344 14.054688 -5.792969 11.542969 -5.792969 L 11.160156 -5.792969 C 8.648438 -5.792969 7.527344 -7.105469 7.953125 -10.425781 L 0.617188 -10.425781 L 0.539062 -9.808594 C -0.347656 -2.820312 3.4375 0.539062 10.773438 0.539062 C 17.875 0.539062 22.125 -2.472656 22.742188 -8.148438 L 22.820312 -8.839844 C 23.476562 -14.59375 20.617188 -17.144531 14.167969 -18.03125 C 10.191406 -18.570312 9.535156 -19.613281 9.691406 -21.234375 L 9.730469 -21.621094 C 9.882812 -23.128906 11.121094 -24.324219 13.242188 -24.324219 L 13.628906 -24.324219 C 16.332031 -24.324219 17.105469 -22.703125 16.640625 -19.304688 L 23.976562 -19.304688 L 24.09375 -20.230469 C 24.941406 -27.105469 21.816406 -30.65625 14.285156 -30.65625 C 6.757812 -30.65625 2.855469 -27.027344 2.277344 -21.699219 L 2.199219 -21.003906 C 1.582031 -15.558594 4.246094 -12.972656 10.695312 -12.125 Z M 10.695312 -12.125 "/></g></g></g><g fill="#061922" fill-opacity="1"><g transform="translate(100.449197, 180.686515)"><g><path d="M 8.878906 -15.753906 C 9.574219 -20.964844 10.539062 -24.324219 14.207031 -24.324219 L 14.632812 -24.324219 C 17.527344 -24.324219 17.800781 -22.007812 17.335938 -18.53125 L 24.671875 -18.53125 L 24.863281 -20.039062 C 25.792969 -27.296875 22.199219 -30.65625 14.863281 -30.65625 C 6.757812 -30.65625 2.820312 -26.175781 1.429688 -15.753906 L 1.234375 -14.285156 C -0.15625 -3.859375 3.476562 0.539062 11.582031 0.539062 C 18.339844 0.539062 22.703125 -2.277344 23.550781 -10.078125 L 23.589844 -10.425781 L 16.253906 -10.425781 C 15.90625 -7.722656 14.789062 -5.792969 12.199219 -5.792969 L 11.777344 -5.792969 C 8.300781 -5.792969 7.992188 -9.035156 8.6875 -14.285156 Z M 8.878906 -15.753906 "/></g></g></g><g fill="#061922" fill-opacity="1"><g transform="translate(125.926273, 180.686515)"><g><path d="M 14.863281 -30.65625 C 6.757812 -30.65625 2.820312 -26.175781 1.429688 -15.753906 L 1.234375 -14.285156 C -0.15625 -3.859375 3.476562 0.539062 11.582031 0.539062 C 19.691406 0.539062 23.589844 -3.9375 24.980469 -14.363281 L 25.171875 -15.832031 C 26.5625 -26.253906 22.972656 -30.65625 14.863281 -30.65625 Z M 11.777344 -5.792969 C 8.300781 -5.792969 7.992188 -9.035156 8.6875 -14.285156 L 8.878906 -15.753906 C 9.574219 -21.003906 10.734375 -24.324219 14.207031 -24.324219 L 14.632812 -24.324219 C 18.109375 -24.324219 18.417969 -21.082031 17.722656 -15.832031 L 17.527344 -14.363281 C 16.832031 -9.113281 15.675781 -5.792969 12.199219 -5.792969 Z M 11.777344 -5.792969 "/></g></g></g><g fill="#061922" fill-opacity="1"><g transform="translate(152.175391, 180.686515)"><g><path d="M 17.992188 0 L 18.804688 -6.332031 L 8.183594 -6.332031 L 11.3125 -30.117188 L 3.976562 -30.117188 L 0.0390625 0 Z M 17.992188 0 "/></g></g></g><g fill="#061922" fill-opacity="1"><g transform="translate(172.634255, 180.686515)"><g><path d="M 11.503906 -30.117188 L 4.167969 -30.117188 L 0.230469 0 L 7.566406 0 Z M 11.503906 -30.117188 "/></g></g></g><g fill="#061922" fill-opacity="1"><g transform="translate(184.214748, 180.686515)"><g><path d="M 26.757812 -30.117188 L 19.808594 -30.117188 L 18.378906 -19.304688 L 17.835938 -13.511719 L 11.699219 -30.117188 L 3.976562 -30.117188 L 0.0390625 0 L 6.988281 0 L 8.378906 -10.8125 L 8.957031 -16.601562 L 15.097656 0 L 22.820312 0 Z M 26.757812 -30.117188 "/></g></g></g><g fill="#061922" fill-opacity="1"><g transform="translate(210.849875, 180.686515)"><g><path d="M 18.648438 -30.117188 L 17.144531 -18.53125 L 9.808594 -18.53125 L 11.3125 -30.117188 L 3.976562 -30.117188 L 0.0390625 0 L 7.375 0 L 8.957031 -12.199219 L 16.292969 -12.199219 L 14.710938 0 L 22.046875 0 L 25.984375 -30.117188 Z M 18.648438 -30.117188 "/></g></g></g><g fill="#061922" fill-opacity="1"><g transform="translate(236.712971, 180.686515)"><g><path d="M 9.574219 -30.117188 L -1.542969 0 L 6.332031 0 L 8.300781 -6.101562 L 14.554688 -6.101562 L 15.019531 0 L 22.855469 0 L 19.613281 -30.117188 Z M 13.476562 -21.621094 L 14.132812 -12.433594 L 10.425781 -12.433594 Z M 13.476562 -21.621094 "/></g></g></g><g fill="#061922" fill-opacity="1"><g transform="translate(261.804038, 180.686515)"><g/></g></g><g fill="#061922" fill-opacity="1"><g transform="translate(269.524382, 180.686515)"><g><path d="M 24.75 -15.832031 C 26.140625 -26.253906 22.894531 -30.117188 13.4375 -30.117188 L 3.976562 -30.117188 L 0.0390625 0 L 9.882812 0 C 19.34375 0 23.164062 -3.9375 24.554688 -14.363281 Z M 8.183594 -6.332031 L 10.5 -23.785156 L 12.238281 -23.785156 C 17.257812 -23.785156 17.992188 -21.042969 17.296875 -15.832031 L 17.105469 -14.363281 C 16.410156 -9.152344 15.328125 -6.332031 10.308594 -6.332031 Z M 8.183594 -6.332031 "/></g></g></g><g fill="#061922" fill-opacity="1"><g transform="translate(295.387479, 180.686515)"><g><path d="M 14.863281 -30.65625 C 6.757812 -30.65625 2.820312 -26.175781 1.429688 -15.753906 L 1.234375 -14.285156 C -0.15625 -3.859375 3.476562 0.539062 11.582031 0.539062 C 19.691406 0.539062 23.589844 -3.9375 24.980469 -14.363281 L 25.171875 -15.832031 C 26.5625 -26.253906 22.972656 -30.65625 14.863281 -30.65625 Z M 11.777344 -5.792969 C 8.300781 -5.792969 7.992188 -9.035156 8.6875 -14.285156 L 8.878906 -15.753906 C 9.574219 -21.003906 10.734375 -24.324219 14.207031 -24.324219 L 14.632812 -24.324219 C 18.109375 -24.324219 18.417969 -21.082031 17.722656 -15.832031 L 17.527344 -14.363281 C 16.832031 -9.113281 15.675781 -5.792969 12.199219 -5.792969 Z M 11.777344 -5.792969 "/></g></g></g><g fill="#061922" fill-opacity="1"><g transform="translate(78.644267, 223.436513)"><g><path d="M 8.878906 -15.753906 C 9.574219 -20.964844 10.539062 -24.324219 14.207031 -24.324219 L 14.632812 -24.324219 C 17.527344 -24.324219 17.800781 -22.007812 17.335938 -18.53125 L 24.671875 -18.53125 L 24.863281 -20.039062 C 25.792969 -27.296875 22.199219 -30.65625 14.863281 -30.65625 C 6.757812 -30.65625 2.820312 -26.175781 1.429688 -15.753906 L 1.234375 -14.285156 C -0.15625 -3.859375 3.476562 0.539062 11.582031 0.539062 C 18.339844 0.539062 22.703125 -2.277344 23.550781 -10.078125 L 23.589844 -10.425781 L 16.253906 -10.425781 C 15.90625 -7.722656 14.789062 -5.792969 12.199219 -5.792969 L 11.777344 -5.792969 C 8.300781 -5.792969 7.992188 -9.035156 8.6875 -14.285156 Z M 8.878906 -15.753906 "/></g></g></g><g fill="#061922" fill-opacity="1"><g transform="translate(104.121343, 223.436513)"><g><path d="M 18.648438 -30.117188 L 17.144531 -18.53125 L 9.808594 -18.53125 L 11.3125 -30.117188 L 3.976562 -30.117188 L 0.0390625 0 L 7.375 0 L 8.957031 -12.199219 L 16.292969 -12.199219 L 14.710938 0 L 22.046875 0 L 25.984375 -30.117188 Z M 18.648438 -30.117188 "/></g></g></g><g fill="#061922" fill-opacity="1"><g transform="translate(129.98444, 223.436513)"><g><path d="M 9.574219 -30.117188 L -1.542969 0 L 6.332031 0 L 8.300781 -6.101562 L 14.554688 -6.101562 L 15.019531 0 L 22.855469 0 L 19.613281 -30.117188 Z M 13.476562 -21.621094 L 14.132812 -12.433594 L 10.425781 -12.433594 Z M 13.476562 -21.621094 "/></g></g></g><g fill="#061922" fill-opacity="1"><g transform="translate(155.075507, 223.436513)"><g><path d="M 11.96875 0.539062 C 17.683594 0.539062 20.65625 -1.121094 22.972656 -3.011719 L 24.789062 -16.757812 L 13.824219 -16.757812 L 12.972656 -10.425781 L 16.601562 -10.425781 L 16.101562 -6.5625 C 15.328125 -6.140625 13.898438 -5.792969 12.78125 -5.792969 L 12.355469 -5.792969 C 8.6875 -5.792969 7.992188 -9.035156 8.6875 -14.285156 L 8.878906 -15.753906 C 9.574219 -20.964844 10.773438 -24.324219 14.441406 -24.324219 L 14.863281 -24.324219 C 17.761719 -24.324219 18.183594 -22.007812 17.722656 -18.53125 L 25.058594 -18.53125 L 25.25 -20.039062 C 26.175781 -27.296875 22.472656 -30.65625 15.097656 -30.65625 C 6.988281 -30.65625 2.820312 -26.175781 1.429688 -15.753906 L 1.234375 -14.285156 C -0.15625 -3.859375 3.859375 0.539062 11.96875 0.539062 Z M 11.96875 0.539062 "/></g></g></g><g fill="#061922" fill-opacity="1"><g transform="translate(181.324624, 223.436513)"><g><path d="M 11.195312 0.539062 C 19.921875 0.539062 22.664062 -3.242188 23.476562 -9.574219 L 26.175781 -30.117188 L 18.839844 -30.117188 L 16.175781 -9.769531 C 15.867188 -7.375 14.828125 -5.792969 11.621094 -5.792969 C 8.417969 -5.792969 8.148438 -7.375 8.457031 -9.769531 L 11.121094 -30.117188 L 3.785156 -30.117188 L 1.082031 -9.574219 C 0.269531 -3.242188 2.472656 0.539062 11.195312 0.539062 Z M 11.195312 0.539062 "/></g></g></g><g fill="#061922" fill-opacity="1"><g transform="translate(207.18772, 223.436513)"><g><path d="M 11.503906 -30.117188 L 4.167969 -30.117188 L 0.230469 0 L 7.566406 0 Z M 11.503906 -30.117188 "/></g></g></g><g fill="#061922" fill-opacity="1"><g transform="translate(218.768214, 223.436513)"><g><path d="M 26.757812 -30.117188 L 19.808594 -30.117188 L 18.378906 -19.304688 L 17.835938 -13.511719 L 11.699219 -30.117188 L 3.976562 -30.117188 L 0.0390625 0 L 6.988281 0 L 8.378906 -10.8125 L 8.957031 -16.601562 L 15.097656 0 L 22.820312 0 Z M 26.757812 -30.117188 "/></g></g></g><g fill="#061922" fill-opacity="1"><g transform="translate(245.40334, 223.436513)"><g><path d="M 18.648438 -30.117188 L 17.144531 -18.53125 L 9.808594 -18.53125 L 11.3125 -30.117188 L 3.976562 -30.117188 L 0.0390625 0 L 7.375 0 L 8.957031 -12.199219 L 16.292969 -12.199219 L 14.710938 0 L 22.046875 0 L 25.984375 -30.117188 Z M 18.648438 -30.117188 "/></g></g></g><g fill="#061922" fill-opacity="1"><g transform="translate(271.266448, 223.436513)"><g><path d="M 9.574219 -30.117188 L -1.542969 0 L 6.332031 0 L 8.300781 -6.101562 L 14.554688 -6.101562 L 15.019531 0 L 22.855469 0 L 19.613281 -30.117188 Z M 13.476562 -21.621094 L 14.132812 -12.433594 L 10.425781 -12.433594 Z M 13.476562 -21.621094 "/></g></g></g><g fill="#061922" fill-opacity="1"><g transform="translate(113.238966, 259.83432)"><g><path d="M 6.265625 -10.175781 L 9.140625 -10.175781 L 9.429688 -12.402344 L 1.113281 -12.402344 L 0.828125 -10.175781 L 3.6875 -10.175781 L 2.351562 0 L 4.929688 0 Z M 6.265625 -10.175781 "/></g></g></g><g fill="#061922" fill-opacity="1"><g transform="translate(123.521122, 259.83432)"><g><path d="M 4.386719 -12.402344 L 1.8125 -12.402344 L 0.191406 0 L 2.765625 0 Z M 4.386719 -12.402344 "/></g></g></g><g fill="#061922" fill-opacity="1"><g transform="translate(129.449236, 259.83432)"><g><path d="M 10.699219 -7.933594 L 10.253906 -5.121094 L 9.585938 0 L 12.164062 0 L 13.785156 -12.402344 L 9.828125 -12.402344 L 6.613281 -4.46875 L 5.484375 -12.402344 L 1.734375 -12.402344 L 0.109375 0 L 2.6875 0 L 3.355469 -5.121094 L 3.640625 -7.933594 L 4.816406 0 L 7.441406 0 Z M 10.699219 -7.933594 "/></g></g></g><g fill="#061922" fill-opacity="1"><g transform="translate(144.68927, 259.83432)"><g><path d="M 1.734375 -12.402344 L 0.109375 0 L 7.695312 0 L 7.980469 -2.226562 L 2.972656 -2.226562 L 3.371094 -5.214844 L 7.585938 -5.214844 L 7.871094 -7.441406 L 3.65625 -7.441406 L 4.023438 -10.175781 L 9.03125 -10.175781 L 9.316406 -12.402344 Z M 1.734375 -12.402344 "/></g></g></g><g fill="#061922" fill-opacity="1"><g transform="translate(155.225668, 259.83432)"><g/></g></g><g fill="#061922" fill-opacity="1"><g transform="translate(159.83485, 259.83432)"><g><path d="M 9.984375 -6.457031 C 10.527344 -10.828125 8.917969 -12.402344 5.359375 -12.402344 L 1.734375 -12.402344 L 0.109375 0 L 3.941406 0 C 7.519531 0 9.363281 -1.511719 9.921875 -5.945312 Z M 2.972656 -2.226562 L 4.023438 -10.175781 L 5.230469 -10.175781 C 7.234375 -10.175781 7.664062 -8.917969 7.363281 -6.457031 L 7.296875 -5.945312 C 6.964844 -3.308594 6.121094 -2.226562 3.976562 -2.226562 Z M 2.972656 -2.226562 "/></g></g></g><g fill="#061922" fill-opacity="1"><g transform="translate(171.801418, 259.83432)"><g><path d="M 1.734375 -12.402344 L 0.109375 0 L 7.695312 0 L 7.980469 -2.226562 L 2.972656 -2.226562 L 3.371094 -5.214844 L 7.585938 -5.214844 L 7.871094 -7.441406 L 3.65625 -7.441406 L 4.023438 -10.175781 L 9.03125 -10.175781 L 9.316406 -12.402344 Z M 1.734375 -12.402344 "/></g></g></g><g fill="#061922" fill-opacity="1"><g transform="translate(182.337815, 259.83432)"><g/></g></g><g fill="#061922" fill-opacity="1"><g transform="translate(186.946997, 259.83432)"><g><path d="M 1.734375 -12.402344 L 0.109375 0 L 2.6875 0 L 3.371094 -5.214844 L 7.519531 -5.214844 L 7.808594 -7.441406 L 3.65625 -7.441406 L 4.023438 -10.175781 L 8.96875 -10.175781 L 9.253906 -12.402344 Z M 1.734375 -12.402344 "/></g></g></g><g fill="#061922" fill-opacity="1"><g transform="translate(197.10202, 259.83432)"><g><path d="M 4.660156 0.207031 C 8.03125 0.207031 9.109375 -1.238281 9.460938 -3.925781 L 10.574219 -12.402344 L 7.996094 -12.402344 L 6.902344 -4.007812 C 6.726562 -2.671875 6.183594 -2.019531 4.722656 -2.019531 C 3.257812 -2.019531 2.957031 -2.703125 3.132812 -4.007812 L 4.230469 -12.402344 L 1.652344 -12.402344 L 0.539062 -3.925781 C 0.191406 -1.222656 1.289062 0.207031 4.660156 0.207031 Z M 4.660156 0.207031 "/></g></g></g><g fill="#061922" fill-opacity="1"><g transform="translate(209.068585, 259.83432)"><g><path d="M 6.265625 -10.175781 L 9.140625 -10.175781 L 9.429688 -12.402344 L 1.113281 -12.402344 L 0.828125 -10.175781 L 3.6875 -10.175781 L 2.351562 0 L 4.929688 0 Z M 6.265625 -10.175781 "/></g></g></g><g fill="#061922" fill-opacity="1"><g transform="translate(219.350741, 259.83432)"><g><path d="M 1.734375 -12.402344 L 0.109375 0 L 7.695312 0 L 7.980469 -2.226562 L 2.972656 -2.226562 L 3.371094 -5.214844 L 7.585938 -5.214844 L 7.871094 -7.441406 L 3.65625 -7.441406 L 4.023438 -10.175781 L 9.03125 -10.175781 L 9.316406 -12.402344 Z M 1.734375 -12.402344 "/></g></g></g><g fill="#061922" fill-opacity="1"><g transform="translate(229.887144, 259.83432)"><g><path d="M 1.734375 -12.402344 L 0.109375 0 L 4.324219 0 C 6.421875 0 8.523438 -0.367188 8.917969 -3.402344 L 8.96875 -3.769531 C 9.140625 -5.136719 8.699219 -6.074219 7.710938 -6.40625 C 8.664062 -6.742188 9.140625 -7.378906 9.300781 -8.617188 L 9.347656 -8.984375 C 9.714844 -11.796875 7.773438 -12.402344 5.835938 -12.402344 Z M 5.121094 -5.214844 C 5.914062 -5.214844 6.519531 -4.867188 6.375 -3.785156 L 6.34375 -3.546875 C 6.199219 -2.417969 5.46875 -2.226562 4.675781 -2.226562 L 2.972656 -2.226562 L 3.355469 -5.214844 Z M 5.53125 -10.175781 C 6.21875 -10.175781 6.867188 -9.890625 6.742188 -8.917969 L 6.710938 -8.679688 C 6.582031 -7.664062 5.804688 -7.457031 5.183594 -7.457031 L 3.65625 -7.457031 L 4.023438 -10.175781 Z M 5.53125 -10.175781 "/></g></g></g><g fill="#061922" fill-opacity="1"><g transform="translate(241.345208, 259.83432)"><g><path d="M 5.976562 -12.609375 C 2.75 -12.609375 1.207031 -10.765625 0.667969 -6.457031 L 0.605469 -5.945312 C 0.0625 -1.621094 1.542969 0.207031 4.769531 0.207031 C 7.996094 0.207031 9.539062 -1.636719 10.082031 -5.945312 L 10.144531 -6.457031 C 10.683594 -10.78125 9.207031 -12.609375 5.976562 -12.609375 Z M 4.753906 -2.019531 C 3.164062 -2.019531 2.910156 -3.449219 3.226562 -5.945312 L 3.292969 -6.457031 C 3.609375 -8.953125 4.261719 -10.382812 5.835938 -10.382812 L 5.996094 -10.382812 C 7.585938 -10.382812 7.839844 -8.953125 7.519531 -6.457031 L 7.457031 -5.945312 C 7.140625 -3.449219 6.488281 -2.019531 4.914062 -2.019531 Z M 4.753906 -2.019531 "/></g></g></g><g fill="#061922" fill-opacity="1"><g transform="translate(253.47068, 259.83432)"><g><path d="M 7.265625 0 L 7.550781 -2.226562 L 2.972656 -2.226562 L 4.308594 -12.402344 L 1.734375 -12.402344 L 0.109375 0 Z M 7.265625 0 "/></g></g></g><g clip-path="url(#cec4eeafcd)"><g clip-path="url(#d9461887fc)"><g clip-path="url(#cb222a1115)"><path fill="#ff1616" d="M 94.71875 103.496094 C 101.152344 104.132812 106.015625 108.707031 106.015625 108.707031 C 106.015625 108.707031 88.496094 105.519531 72.519531 117.632812 C 75.0625 116.949219 85.492188 119.355469 85.492188 119.355469 C 58.832031 122.226562 37.023438 158.34375 36.132812 160.019531 C 36.132812 160.019531 40.25 135.542969 54.101562 122.351562 C 50.421875 121.953125 41.992188 123.464844 41.941406 123.605469 C 45.242188 119.34375 64.378906 104.949219 75.453125 104.429688 C 72.113281 102.183594 62.417969 102.417969 62.195312 102.355469 C 104.21875 88.667969 152.691406 105.269531 152.765625 105.332031 C 152.765625 105.332031 108.238281 97.082031 94.71875 103.496094 Z M 94.71875 103.496094 " fill-opacity="1" fill-rule="nonzero"/></g></g></g><g clip-path="url(#54a0641c19)"><g clip-path="url(#1376db91eb)"><g clip-path="url(#59cc71c436)"><path fill="#007dc5" d="M 314.195312 277.292969 C 316.96875 271.457031 315.554688 264.925781 315.554688 264.925781 C 315.554688 264.925781 309.253906 281.585938 290.636719 289.03125 C 292.535156 287.203125 295.851562 277.027344 295.851562 277.027344 C 279.644531 298.386719 237.453125 298.460938 235.5625 298.355469 C 235.5625 298.355469 258.65625 307.449219 277.101562 302.382812 C 275.542969 305.738281 269.902344 312.179688 269.757812 312.152344 C 275.113281 311.519531 297.308594 302.542969 303.464844 293.320312 C 303.667969 297.339844 298.46875 305.53125 298.40625 305.753906 C 331.796875 276.796875 342.5625 226.703125 342.546875 226.609375 C 342.546875 226.609375 326.660156 269.019531 314.195312 277.292969 Z M 314.195312 277.292969 " fill-opacity="1" fill-rule="nonzero"/></g></g></g></svg>